<?xml version="1.0" encoding="utf-8"?>
<!-- Uploaded to: SVG Repo, www.svgrepo.com, Generator: SVG Repo Mixer Tools -->
<svg width="800px" height="800px" viewBox="0 -17.5 64 64" xmlns="http://www.w3.org/2000/svg">
  <g id="Group_582" data-name="Group 582" transform="translate(-188 -362.409)">
    <g id="Group_491" data-name="Group 491">
      <g id="Group_484" data-name="Group 484">
        <path id="Path_673" data-name="Path 673" d="M204.969,384.409c-4.5,0-7.969-.5-7.969-5v-5a7,7,0,0,1,7-7h18.2a5.005,5.005,0,0,1,3.8,1.747l5.46,6.211Z" fill="#29abe2"/>
        <path id="Path_674" data-name="Path 674" d="M205.135,385.409h-.166c-3.355,0-8.969,0-8.969-6v-5a8.009,8.009,0,0,1,8-8h18.2a6,6,0,0,1,4.559,2.1l6.439,7.326Zm-1.135-17a6.006,6.006,0,0,0-6,6v5c0,3.033,1.6,3.98,6.8,4L229.72,374.9l-4.473-5.088a4.008,4.008,0,0,0-3.049-1.407Z"/>
      </g>
      <g id="Group_485" data-name="Group 485">
        <path id="Path_675" data-name="Path 675" d="M204.969,385.409c-4.5,0-7.969-.5-7.969-5v-5h43.219A4.781,4.781,0,0,1,245,380.19v.438a4.782,4.782,0,0,1-4.781,4.781h-35.25Z" fill="#29abe2"/>
        <path id="Path_676" data-name="Path 676" d="M240.219,386.409h-35.25c-3.355,0-8.969,0-8.969-6v-6h44.219A5.788,5.788,0,0,1,246,380.19v.437A5.789,5.789,0,0,1,240.219,386.409Zm-42.219-10v4c0,3.065,1.628,4,6.969,4h35.25A3.786,3.786,0,0,0,244,380.627v-.437a3.785,3.785,0,0,0-3.781-3.781Z"/>
      </g>
      <g id="Group_486" data-name="Group 486">
        <circle id="Ellipse_123" data-name="Ellipse 123" cx="3.975" cy="3.975" r="3.975" transform="translate(230.53 380.459)" fill="#29abe2"/>
        <path id="Path_677" data-name="Path 677" d="M234.505,380.459a3.975,3.975,0,1,1-3.975,3.975,3.975,3.975,0,0,1,3.975-3.975m0-2a5.975,5.975,0,1,0,5.974,5.975,5.982,5.982,0,0,0-5.974-5.975Z"/>
      </g>
      <g id="Group_487" data-name="Group 487">
        <circle id="Ellipse_124" data-name="Ellipse 124" cx="3.975" cy="3.975" r="3.975" transform="translate(202.53 380.459)" fill="#29abe2"/>
        <path id="Path_678" data-name="Path 678" d="M206.505,380.459a3.975,3.975,0,1,1-3.975,3.975,3.975,3.975,0,0,1,3.975-3.975m0-2a5.975,5.975,0,1,0,5.974,5.975,5.982,5.982,0,0,0-5.974-5.975Z"/>
      </g>
      <g id="Group_488" data-name="Group 488">
        <line id="Line_209" data-name="Line 209" x1="3" transform="translate(220 379.409)" fill="#29abe2"/>
        <path id="Path_679" data-name="Path 679" d="M223,380.409h-3a1,1,0,0,1,0-2h3a1,1,0,1,1,0,2Z"/>
      </g>
      <g id="Group_489" data-name="Group 489">
        <line id="Line_210" data-name="Line 210" x1="62" transform="translate(189 390.409)" fill="#29abe2"/>
        <path id="Path_680" data-name="Path 680" d="M251,391.409H189a1,1,0,0,1,0-2h62a1,1,0,1,1,0,2Z"/>
      </g>
      <g id="Group_490" data-name="Group 490">
        <path id="Path_681" data-name="Path 681" d="M215,367.409h5l-1-4h-3Z" fill="#29abe2"/>
        <path id="Path_682" data-name="Path 682" d="M220,368.409h-5a1,1,0,0,1-.97-1.242l1-4a1,1,0,0,1,.97-.758h3a1,1,0,0,1,.97.758l1,4a1,1,0,0,1-.97,1.242Zm-3.719-2h2.438l-.5-2h-1.438Z"/>
      </g>
    </g>
  </g>
</svg>