<svg xmlns="http://www.w3.org/2000/svg" viewBox="0 0 24 24" fill="#ffffff" width="24" height="24">
  <path d="M12 2c-4 0-8 .5-8 4v9.5C4 17.43 5.57 19 7.5 19L6 20.5v.5h2.23l2-2H14l2 2h2v-.5L16.5 19c1.93 0 3.5-1.57 3.5-3.5V6c0-3.5-4-4-8-4m0 2c3.51 0 4.96.48 5.57 1H6.43c.61-.52 2.06-1 5.57-1M6 7h5v3H6V7m7 0h5v3h-5V7M7.5 17c-.83 0-1.5-.67-1.5-1.5S6.67 14 7.5 14s1.5.67 1.5 1.5S8.33 17 7.5 17m9 0c-.83 0-1.5-.67-1.5-1.5s.67-1.5 1.5-1.5 1.5.67 1.5 1.5-.67 1.5-1.5 1.5m1.5-7H6v-.75C6 6.67 6.67 6 7.25 6h9.5c.58 0 1.05.47 1.05 1.05V10h.2z"/>
</svg>
